PathFileType	4	(X/Y/Z)	T1_P1_Vision_NoMovement_4_0-684.trc
DataRate	CameraRate	NumFrames	NumMarkers	Units	OrigDataRate	OrigDataStartFrame	OrigNumFrames
60	60	4	27	m	60	0	684
Frame#	Time	RHip			RKnee			RAnkle			RBigToe			RSmallToe			RHeel			LHip			LKnee			LAnkle			LBigToe			LSmallToe			LHeel			Neck			Head			Nose			RShoulder			RElbow			RWrist			RThumb			RIndex			RPinky			LShoulder			LElbow			LWrist			LThumb			LIndex			LPinky		
		X1	Y1	Z1	X2	Y2	Z2	X3	Y3	Z3	X4	Y4	Z4	X5	Y5	Z5	X6	Y6	Z6	X7	Y7	Z7	X8	Y8	Z8	X9	Y9	Z9	X10	Y10	Z10	X11	Y11	Z11	X12	Y12	Z12	X13	Y13	Z13	X14	Y14	Z14	X15	Y15	Z15	X16	Y16	Z16	X17	Y17	Z17	X18	Y18	Z18	X19	Y19	Z19	X20	Y20	Z20	X21	Y21	Z21	X22	Y22	Z22	X23	Y23	Z23	X24	Y24	Z24	X25	Y25	Z25	X26	Y26	Z26	X27	Y27	Z27
1	0.0166666666666666	-66.81264673524656	3769.8563857510508	-531.7242237516086	284.0869791664757	3898.557459566921	-499.35019179459937	639.3957396561559	4157.430251559407	-526.2589806396485	701.5002123485747	4017.4822082197725	-456.90830778075576	688.9767303988315	3964.2214203464273	-489.6666295379461	676.8649746297718	4199.609071348873	-533.6920702693711	-102.8585509808735	3884.8107887902506	-343.9644607077793	245.8689206519226	3959.5169226558146	-354.155453319332	617.3511617740463	4246.787945455977	-440.9007248389526	665.4190460678126	3969.742081389033	-340.72940118179173	669.9930261298556	4092.033662133964	-337.4891324999666	663.977329041833	4315.196876378088	-485.8062265606668	-660.4339366863388	3667.4043290135614	-499.2156795766268	-901.7147146914773	3518.9255153271206	-432.3653429944338	-763.8345372165579	3556.938977733349	-403.336517267321	-547.9242077961381	3654.0331514163317	-650.2522814518002	-275.62143652574605	3650.395884930826	-672.1149543471613	-11.651045758150781	3628.8955336625004	-600.7384727581074	92.24530831490544	3741.53693953263	-561.6179649193351	123.54452777269863	3695.256132975448	-554.1095373605908	106.00719586358946	3652.7367954335864	-584.3538683277875	-607.6384813968473	3737.859519519109	-344.4711279004983	-386.55538691304633	3981.2288425130705	-338.9884370809298	-128.95862332696444	3942.9507925189255	-225.78446634506176	11.27935394781132	3838.8012168524924	-226.24143667804822	32.1793948145177	3879.4598758250877	-202.73834564195278	7.756875707338731	3979.1217213480577	-210.22278349471003
2	0.0333333333333333	-66.10215582131555	3758.1852385371412	-533.3358102184917	286.8336333628905	3891.4333529619507	-497.8948782623782	640.1897046971994	4145.437185158725	-527.4445998992092	692.9741513938609	4003.894881132862	-443.99879426716257	689.1232588366154	3958.408686199213	-488.86741854212767	679.8089423128191	4186.78734131003	-532.5704570096575	-102.85667573252023	3884.7289257782763	-343.76352586041224	244.78879464035856	3958.0252122705465	-352.77083847284035	616.1068978547974	4225.364238770099	-439.62983074477427	660.6590827454837	3965.2129841346314	-337.98799060750196	668.8144621412605	4107.735966459162	-340.5325846963531	663.2085964686523	4302.058794138426	-485.1676154689481	-659.3695277840617	3659.3863095750003	-492.78240176901346	-901.6739888588418	3518.9204698051385	-432.2902703269761	-763.2653379155616	3548.877671425374	-401.5977941515197	-549.2616384864402	3656.022727505448	-652.3079290418191	-273.0913734175076	3651.3410279506647	-672.2929061579081	-17.697993346383367	3626.604299184973	-599.772089828037	92.07221456412388	3741.8818665688577	-561.7735581934902	123.18245295683613	3695.2911837632146	-553.7874582648836	105.8944780736107	3652.575074847914	-584.2842068576745	-608.2663965491921	3742.4398550912188	-347.8451203324325	-386.52287930736674	3980.907931197182	-338.7545875300583	-128.31505477882718	3927.2524208991	-224.70938049815499	10.66156201884267	3823.0173607481834	-223.54267005915244	31.14406555755772	3862.5734571756007	-199.97852029006754	7.0408057419838475	3967.72623062559	-203.20704797077775
3	0.05	-65.52823460933323	3752.431464260802	-536.0369813327392	288.6973564752394	3890.3835615248454	-498.38249594180684	641.0354628658037	4139.301214538009	-527.6923726062884	689.6912234896603	3999.423943745305	-437.2385484148607	690.004716418093	3958.934665426321	-489.34659039624387	681.0251298753788	4180.300029612577	-531.901676820083	-102.83228570154117	3884.7119669012027	-343.81973646743774	244.19728951802517	3958.0526631480975	-352.1165627534974	614.8189454634984	4214.644899380181	-438.54178990054675	658.2842940201999	3960.134602661418	-334.73121086356133	668.5006753869548	4117.326501642468	-342.2687705851406	663.4398291453641	4295.643834151026	-484.13577421923605	-658.8778455507004	3655.696339699585	-489.83026291689146	-902.4580898766286	3518.5888108760864	-432.1967105662875	-762.5524908297645	3542.836029537767	-400.1879572142518	-550.0696789199053	3658.4527420210966	-654.5449322348059	-271.0553436864121	3651.6438763374563	-672.1372393368543	-21.341741149592774	3625.242400465609	-599.2043026996239	91.96398675199515	3742.1260557866235	-561.8869783410292	122.3772456763142	3696.187662541377	-553.0026123329556	105.85076983977126	3652.763623934934	-584.3658254442039	-608.5571999347917	3744.387973946434	-349.276065099088	-386.516660689475	3980.745950286681	-338.6352088148668	-127.92083436545732	3917.7291290105154	-223.75574723202305	9.468586971625902	3812.8783028145067	-221.61698417994003	29.628166754927566	3851.785757431327	-198.04825106484284	6.648298031230425	3960.836727328106	-198.9758930383512
4	0.0666666666666666	-65.1673307724999	3753.119331323378	-539.4268978484372	289.2037740358171	3893.540670401686	-500.44685614995785	641.6710319255492	4137.897050871801	-526.2296724606274	691.7683837747824	4003.6934850351754	-437.59203620388877	690.9873048061256	3963.423260368484	-490.5393202948943	680.5348947645566	4178.981651623381	-531.2457312765287	-102.74887185031827	3884.796005301776	-344.5037022823339	244.24466758704102	3960.7678226596618	-352.41948871662953	614.0529514631073	4215.857631537787	-437.953329187251	658.2627831099401	3958.7929487277415	-332.7525113714127	669.0525032899515	4120.450671434623	-342.64496626277156	664.2175938353087	4295.149374031997	-482.77033664197836	-658.7681577567735	3654.8903920742264	-489.2006674599331	-904.2572813117856	3517.778117529942	-432.04071931343105	-762.119918275126	3537.9579553625017	-398.93290522286117	-550.2949019748238	3659.4160723492296	-655.3961260566047	-270.25815647899867	3651.74006901582	-672.1192955782653	-22.389292608417797	3624.8891655989128	-599.0680413813757	91.92271782282556	3742.2463516417674	-561.9299646632453	120.95936026444625	3698.774660148658	-552.162982189615	105.8580170497629	3653.108512067688	-584.5223531104969	-608.2438968905035	3742.7904148849443	-348.05936621574284	-386.5212454674144	3980.7990491269625	-338.7938964562387	-127.82445614840461	3914.8078014459165	-222.8525988067274	7.905148894316536	3809.0169210894937	-220.61789521758902	27.880230847220638	3847.79050628594	-197.08915990246788	6.601888588257775	3958.7411050194223	-197.6921530999127
